<svg width="60" height="60" viewBox="0 0 60 60" fill="none" xmlns="http://www.w3.org/2000/svg">
<mask id="mask0_23_20" style="mask-type:alpha" maskUnits="userSpaceOnUse" x="0" y="0" width="60" height="60">
<rect width="60" height="60" fill="#D9D9D9"/>
</mask>
<g mask="url(#mask0_23_20)">
<path d="M30 36.9713L39.4712 27.5L37.6875 25.7788L30 33.4663L22.3125 25.7788L20.5287 27.5L30 36.9713ZM30.0081 52.5C26.8969 52.5 23.9717 51.9096 21.2325 50.7288C18.4938 49.5479 16.1113 47.9454 14.085 45.9212C12.0588 43.8971 10.4548 41.5167 9.27312 38.78C8.09104 36.0438 7.5 33.1198 7.5 30.0081C7.5 26.8969 8.09042 23.9717 9.27125 21.2325C10.4521 18.4937 12.0546 16.1112 14.0788 14.085C16.1029 12.0587 18.4833 10.4548 21.22 9.27312C23.9562 8.09104 26.8802 7.5 29.9919 7.5C33.1031 7.5 36.0283 8.09042 38.7675 9.27125C41.5063 10.4521 43.8888 12.0546 45.915 14.0788C47.9413 16.1029 49.5452 18.4833 50.7269 21.22C51.909 23.9563 52.5 26.8802 52.5 29.9919C52.5 33.1031 51.9096 36.0283 50.7288 38.7675C49.5479 41.5062 47.9454 43.8888 45.9212 45.915C43.8971 47.9413 41.5167 49.5452 38.78 50.7269C36.0438 51.909 33.1198 52.5 30.0081 52.5ZM30 50C35.5833 50 40.3125 48.0625 44.1875 44.1875C48.0625 40.3125 50 35.5833 50 30C50 24.4167 48.0625 19.6875 44.1875 15.8125C40.3125 11.9375 35.5833 10 30 10C24.4167 10 19.6875 11.9375 15.8125 15.8125C11.9375 19.6875 10 24.4167 10 30C10 35.5833 11.9375 40.3125 15.8125 44.1875C19.6875 48.0625 24.4167 50 30 50Z" fill="#1C1B1F"/>
</g>
</svg>
